<svg width="40" height="42" viewBox="0 0 40 42" fill="none" xmlns="http://www.w3.org/2000/svg">
<path d="M39.7003 7.5C39.7003 8.2 39.4003 8.8 38.9003 9.3C38.3003 9.8 37.6003 10 36.8003 10C36.0003 10 35.3003 9.8 34.8003 9.3C34.3003 8.9 33.9003 8.3 33.8003 7.5H35.9003C36.1003 7.9 36.4003 8.2 36.8003 8.2C37.1003 8.2 37.3003 8.2 37.4003 8C37.7003 7.9 37.7003 7.7 37.7003 7.5C37.7003 7.3 37.6003 7.1 37.5003 7C37.3003 6.9 37.1003 6.8 36.8003 6.8H36.1003V5.2H36.8003C37.1003 5.2 37.3003 5.2 37.4003 5C37.5003 4.9 37.6003 4.7 37.6003 4.5C37.6003 4.3 37.5003 4.1 37.4003 3.9C37.3003 3.8 37.0003 3.7 36.8003 3.7C36.5003 3.7 36.3003 3.8 36.2003 4C36.1003 4.1 36.0003 4.2 36.0003 4.4H34.0003C34.1003 3.6 34.4003 3 35.0003 2.6C35.4003 2.2 36.0003 2 36.8003 2C37.6003 2 38.3003 2.2 38.8003 2.7C39.3003 3.2 39.6003 3.7 39.6003 4.5C39.6003 5.2 39.3003 5.6 38.8003 6C39.4003 6.2 39.7003 6.8 39.7003 7.5Z" fill="#002C63"/>
<path d="M24.1001 35.0998V37.4998H31.4001V4.7998H24.1001V7.2998H29.0001V35.1998H24.1001V35.0998Z" fill="#002C63"/>
<path d="M17.2002 27.4996H12.0002V22.9996H17.2002C18.4002 22.9996 19.3002 23.9996 19.3002 25.1996C19.3002 26.4996 18.3002 27.4996 17.2002 27.4996ZM12.0002 14.7996H16.7002C17.9002 14.7996 18.8002 15.7996 18.8002 16.9996C18.8002 18.1996 17.8002 19.1996 16.7002 19.1996H12.0002V14.7996ZM22.2002 20.6996C22.9002 19.6996 23.4002 18.4996 23.4002 17.0996C23.4002 13.7996 20.8002 11.0996 17.7002 11.0996H7.2002V19.2996V22.9996V31.1996H12.5002H18.5002C21.6002 31.1996 24.2002 28.4996 24.2002 25.1996C24.3002 23.3996 23.5002 21.7996 22.2002 20.6996Z" fill="#002C63"/>
<path d="M7.3 7.1998V4.7998H0V37.5998H7.3V35.1998H2.4V7.1998H7.3Z" fill="#002C63"/>
</svg>
