<svg width="25" height="24" viewBox="0 0 25 24" fill="none" xmlns="http://www.w3.org/2000/svg">
<mask id="mask0_1899_8614" style="mask-type:alpha" maskUnits="userSpaceOnUse" x="5" y="3" width="15" height="17">
<path d="M19.5 9.6002C19.5 9.4002 19.4 9.2002 19.3 9.1002L13 3.4002C12.9 3.3002 12.7 3.2002 12.6 3.2002C12.4 3.2002 12.3 3.3002 12.2 3.4002L5.7 9.1002C5.6 9.2002 5.5 9.4002 5.5 9.6002V19.3002C5.5 19.7002 5.8 20.0002 6.2 20.0002H11.7H13.5H18.8C19.2 20.0002 19.5 19.7002 19.5 19.3002V9.6002ZM14.8 18.4002V13.3002C14.8 12.6002 14.2 12.0002 13.5 12.0002H11.7C11 12.0002 10.4 12.6002 10.4 13.3002V18.4002H7.1V10.0002L12.5 5.2002L17.9 10.1002V18.5002H14.8V18.4002Z" fill="#002C63"/>
</mask>
<g mask="url(#mask0_1899_8614)">
<rect x="0.5" width="24" height="24" fill="#002C63"/>
</g>
</svg>
