<svg width="24" height="24" viewBox="0 0 24 24" fill="none" xmlns="http://www.w3.org/2000/svg">
  <mask id="mask0_1930_6580" style="mask-type:alpha" maskUnits="userSpaceOnUse" x="2" y="2"
    width="21" height="20">
    <path
      d="M2.39062 8.87988H5.78063C6.59396 8.87988 7.22396 9.07655 7.67063 9.46988C8.11729 9.85655 8.34063 10.3832 8.34063 11.0499C8.34063 11.7099 8.11396 12.2365 7.66063 12.6299C7.20729 13.0232 6.58063 13.2199 5.78063 13.2199H4.27062V15.9999H2.39062V8.87988ZM5.53063 11.8199C6.23729 11.8199 6.59063 11.5699 6.59063 11.0699C6.59063 10.8165 6.50396 10.6265 6.33063 10.4999C6.16396 10.3665 5.89729 10.2999 5.53063 10.2999H4.27062V11.8199H5.53063Z"
      fill="#002C63" />
    <path
      d="M9.23633 8.87988H12.1463C12.933 8.87988 13.6097 9.02322 14.1763 9.30988C14.7497 9.58988 15.1863 9.99655 15.4863 10.5299C15.793 11.0632 15.9463 11.6965 15.9463 12.4299C15.9463 13.1699 15.7963 13.8099 15.4963 14.3499C15.1963 14.8832 14.7597 15.2932 14.1863 15.5799C13.6197 15.8599 12.9397 15.9999 12.1463 15.9999H9.23633V8.87988ZM12.0163 14.4999C12.7097 14.4999 13.2263 14.3299 13.5663 13.9899C13.913 13.6432 14.0863 13.1232 14.0863 12.4299C14.0863 11.0632 13.3963 10.3799 12.0163 10.3799H11.1163V14.4999H12.0163Z"
      fill="#002C63" />
    <path
      d="M17.0488 8.87988H22.0188V10.3499H18.8988V11.6499H21.8188V13.1099H18.8988V15.9999H17.0488V8.87988Z"
      fill="#002C63" />
    <path fill-rule="evenodd" clip-rule="evenodd"
      d="M19.8002 8.88013H18.2002V9.0002V16.0001H18.8988V13.1101H19.8002V11.6501H18.8988V10.3501H19.8002V8.88013ZM19.8002 17.0001H18.2002V20.0002V20.2002H18.0002H6.0002H5.8002V20.0002V14.2201C5.79368 14.2201 5.78715 14.2201 5.78063 14.2201H5.27062V17.0001H4.2002V20.0002C4.2002 21.0002 5.0002 21.8002 6.0002 21.8002H18.0002C19.0002 21.8002 19.8002 21.0002 19.8002 20.0002V17.0001ZM4.2002 16.0001H4.27062V13.2201H5.78063C5.78716 13.2201 5.79368 13.2201 5.8002 13.2201V11.8062C5.71692 11.8155 5.62706 11.8201 5.53063 11.8201H4.27062V10.3001H5.53063C5.62746 10.3001 5.71731 10.3048 5.8002 10.3141V8.88017C5.79368 8.88014 5.78716 8.88013 5.78063 8.88013H4.2002V16.0001ZM16.0488 8.8002V7.88013H19.5801L13.9002 2.2002H6.0002C5.0002 2.2002 4.2002 3.0002 4.2002 4.0002V7.88013H5.78063C5.78715 7.88013 5.79368 7.88014 5.8002 7.88016V4.0002V3.8002H6.0002H13.0002H13.2002V4.0002V7.96226C13.7056 8.04525 14.1818 8.19309 14.6215 8.41465C14.8495 8.52643 15.0629 8.65501 15.2608 8.8002H16.0488Z"
      fill="black" />
  </mask>
  <g mask="url(#mask0_1930_6580)">
    <rect width="24" height="24" fill="#002C63" />
  </g>
</svg>
  